<?xml version="1.0" encoding="UTF-8"?>
<svg id="Capa_1" xmlns="http://www.w3.org/2000/svg" version="1.1" viewBox="0 0 178.15 76.17">
  <!-- Generator: Adobe Illustrator 29.8.1, SVG Export Plug-In . SVG Version: 2.1.1 Build 2)  -->
  <defs>
    <style>
      .st0 {
        fill: #d73216;
      }

      .st1 {
        fill: #fff;
      }
    </style>
  </defs>
  <path class="st1" d="M8.42,60.21v7.19h28.1v8.42H0v-39.6h26v8.42H8.42v7.14s.06,8.37,0,8.42"/>
  <path class="st1" d="M10.08,60.21h12.18v-8.42h-12.18s-.07,8.53,0,8.42"/>
  <path class="st1" d="M46.1,51.65c-1.83-.95-3.6-1.41-5.31-1.85-1.7-.44-3.31-.85-4.95-1.75-.85-.44-1.02-.89-1.02-1.46,0-1.34,1.72-1.95,2.95-1.95,1.69,0,3.46-1.6,4.35-3.19.77-1.39.85-2.72.22-3.73-.67-1.08-1.94-1.58-3.79-1.49-.18,0-.51,0-.88-.02-1.09-.03-1.85-.05-2.32.05-5.43,1.1-9.19,5.62-8.95,10.74.16,3.78,1.94,6.55,5.47,8.48,1.65.89,3.58,1.41,5.44,1.9,1.8.48,3.51.94,4.82,1.7,1.48.8,1.79,2.41,1.79,3.62,0,3.05-3.17,4.7-6.15,4.7h-1.46v8.42h1.46c7.16,0,14.57-4.91,14.57-13.12,0-4.76-2.39-8.99-6.24-11.05"/>
  <polygon class="st1" points="36.31 36.22 36.31 44.64 53.82 44.64 53.82 75.82 62.24 75.82 62.24 44.64 71.05 44.64 71.05 36.22 36.31 36.22"/>
  <polygon class="st1" points="113.76 33.77 95.4 70.4 93.74 75.82 95.71 75.82 102.04 75.82 113.76 52.77 125.42 75.82 134.79 75.82 113.76 33.77"/>
  <polygon class="st1" points="119.73 36.22 119.73 44.64 128.53 44.64 128.53 75.82 136.96 75.82 136.96 44.64 151.58 44.64 156.51 36.22 119.73 36.22"/>
  <path class="st1" d="M158.02,35.97c-11.07,0-20.08,9.01-20.08,20.08s9.01,20.13,20.08,20.13,20.13-9.03,20.13-20.13-9.03-20.08-20.13-20.08M169.72,56.05c0,6.45-5.25,11.7-11.7,11.7s-11.65-5.25-11.65-11.7,5.23-11.65,11.65-11.65,11.7,5.23,11.7,11.65"/>
  <path class="st0" d="M158.03,48.5c-4.16,0-7.55,3.39-7.55,7.55s3.39,7.59,7.55,7.59,7.59-3.4,7.59-7.59-3.4-7.55-7.59-7.55M158.04,58.88c-1.54,0-2.8-1.26-2.8-2.81s1.26-2.8,2.8-2.8,2.81,1.26,2.81,2.8-1.26,2.81-2.81,2.81"/>
  <polygon class="st0" points="119.66 75.82 113.76 64.02 107.84 75.82 119.66 75.82"/>
  <polygon class="st0" points="88.82 75.82 82.59 66.7 82.66 75.82 88.82 75.82"/>
  <path class="st1" d="M101.41,48.04c0-3.5-1.54-6.64-3.96-8.8-2.43,1.99-5.3,3.82-8.7,5.41h.84c1.87,0,3.4,1.52,3.4,3.4s-1.52,3.35-3.4,3.35h-10.15v-6.74h6.7c-1.99-.91-6.89-3.47-11.47-8.42h-3.65v39.6h8.42v-19.97l14.31,19.97h7.61l.65-2.92-9.6-13.42c5.15-1.24,9.01-5.92,9.01-11.45"/>
  <path class="st0" d="M106.32,5.97c-18.62-13.21-37.44-.43-37.44,0-3.57,27.54,18.63,35.63,18.63,35.63,24.5-10.96,18.81-35.63,18.81-35.63M87.36,39.2s-19.39-8.16-16.96-32.37c0,0,17.04-11.25,33.91,0,0,0,4.78,21.64-16.96,32.37"/>
  <path class="st0" d="M87.91,9.38c-.55,0-1,.45-1,1s.45,1,1,1,1-.45,1-1-.45-1-1-1"/>
  <path class="st0" d="M97.24,30c8.11-10.04,5.49-22.13,5.49-22.13-15.28-10.39-30.71,0-30.71,0-1.02,10.3,2.17,17.46,5.89,22.18l2.71-2.76-2.01-1.88,1.19-1.13,1.51,1.19,13.99-14.24,2.45.31.12,2.32-13.99,14.24,1.19,1-1.25,1.44-2.07-1.69-2.6,2.65c4.03,4.45,8.23,6.25,8.23,6.25,3.62-1.82,6.42-3.98,8.59-6.3l-2.87-2.92-1.82,2.07-1.2-1.24,1.27-1.2-2.57-2.45,2.45-2.7,2.26,2.63,1.63-1.51,1.08.99-1.83,2.02,2.89,2.84ZM83.56,20.71l-6.46-6.52.5-2.57,2.2-.31,6.46,6.52-2.7,2.89ZM93.14,10.18h-3.52c0,.06.01.13.01.2,0,.23-.04.44-.12.64h3.4l-.35,1.29h-9.22l-.35-1.29h3.32c-.08-.2-.12-.41-.12-.64,0-.07,0-.13.01-.2h-3.44l-1-3.67h.89s0,.06,0,.09c0,.74.6,1.34,1.34,1.34s1.34-.6,1.34-1.34c0-.03,0-.06,0-.08h1.28s0,.06,0,.08c0,.74.6,1.34,1.34,1.34s1.34-.6,1.34-1.34c0-.03,0-.05,0-.08h1.28s0,.05,0,.08c0,.74.6,1.34,1.34,1.34s1.34-.6,1.34-1.34c0-.02,0-.05,0-.08h.91s-1.01,3.66-1.01,3.66Z"/>
</svg>